<?xml version="1.0" encoding="UTF-8" standalone="no"?><!DOCTYPE svg PUBLIC "-//W3C//DTD SVG 1.1//EN" "http://www.w3.org/Graphics/SVG/1.1/DTD/svg11.dtd"><svg width="100%" height="100%" viewBox="0 0 301 296" version="1.1" xmlns="http://www.w3.org/2000/svg" xmlns:xlink="http://www.w3.org/1999/xlink" xml:space="preserve" style="fill-rule:evenodd;clip-rule:evenodd;stroke-linecap:round;stroke-linejoin:round;stroke-miterlimit:1.5;"><g id="Analytics"><g id="Line-graph"><path d="M17,294l35.395,-32.377l13.765,12.754l31.462,-22.566l3.933,9.812l32.445,-71.623" style="fill:none;stroke:#0072b9;stroke-width:4px;"/><g id="Axis"><rect x="15" y="190" width="1" height="106"/><path d="M134,296l0,-1l-118,-0.01l0,1l118,0.01Z"/></g></g><g id="Pie-chart"><path d="M26.767,31.945c-16.799,12.016 -26.767,31.401 -26.767,52.055c0,29.98 20.811,55.942 50.072,62.466l13.928,-62.466l-37.233,-52.055Z" style="fill:#999;"/><path d="M57.954,148.122c9.451,1.968 19.225,1.772 28.589,-0.572c34.288,-8.585 55.125,-43.339 46.541,-77.627l-62.084,15.543l-13.046,62.656Z" style="fill:#3d3d3d;"/><path d="M143.166,54.173c-9.213,-31.491 -39.111,-53.25 -73.166,-53.25c-14.576,0 -28.845,4.026 -41.105,11.598l41.105,61.402l73.166,-19.75Z" style="fill:#f4ae00;"/></g><g id="Bar-chart"><g id="Axis1"><rect x="182" y="84" width="1" height="106"/><path d="M301,190l0,-1l-118,-0.01l0,1l118,0.01Z"/></g><g id="Bars"><rect x="191" y="146.466" width="30" height="42.524" style="fill:#9a9a9a;"/><rect x="227" y="105.466" width="30" height="83.524" style="fill:#0072b9;"/><rect x="265" y="137" width="30" height="51.99" style="fill:#5c5c5c;"/></g></g></g></svg>