<?xml version="1.0" encoding="UTF-8" standalone="no"?><!DOCTYPE svg PUBLIC "-//W3C//DTD SVG 1.1//EN" "http://www.w3.org/Graphics/SVG/1.1/DTD/svg11.dtd"><svg width="100%" height="100%" viewBox="0 0 275 246" version="1.1" xmlns="http://www.w3.org/2000/svg" xmlns:xlink="http://www.w3.org/1999/xlink" xml:space="preserve" style="fill-rule:evenodd;clip-rule:evenodd;stroke-linecap:round;stroke-linejoin:round;stroke-miterlimit:1.5;"><g id="Analytics"><g id="Analytics1"><g id="Line-graph"><path d="M4.588,241l81.2,-74.277l31.578,29.26l72.178,-51.769l9.022,22.509l74.434,-164.311" style="fill:none;stroke:#0072b9;stroke-width:4px;"/><g id="Axis"><rect x="0" y="2.412" width="2.294" height="243.176"/><path d="M273,245.588l0,-2.294l-270.706,-0.023l0,2.294l270.706,0.023Z"/></g></g></g><text x="103.769px" y="128.687px" style="font-family:'Roboto-Regular', 'Roboto';font-size:54.646px;fill:#aaa;">3<tspan x="133.714px 163.659px " y="128.687px 128.687px ">0%</tspan></text><clipPath id="_clip1"><path d="M69.266,87.001l0.002,45.538l29.008,-0.001l-0.001,-45.539l-29.009,0.002Z"/></clipPath><g clip-path="url(#_clip1)"><path d="M87.682,149.553l7.261,0l-11.17,11.447l-11.171,-11.446l7.261,-0.001l-0.002,-51.106c0,0 -2.607,0 -4.696,0c-0.435,0 -0.827,-0.26 -0.996,-0.661c-0.169,-0.401 -0.081,-0.863 0.222,-1.175c2.477,-2.538 6.84,-7.009 8.606,-8.818c0.203,-0.209 0.482,-0.326 0.773,-0.326c0.291,0 0.57,0.117 0.774,0.326c1.765,1.809 6.129,6.28 8.606,8.818c0.303,0.311 0.391,0.774 0.222,1.174c-0.169,0.401 -0.561,0.662 -0.996,0.662c-2.089,0 -4.696,0 -4.696,0l0.002,51.106Z" style="fill:#6f6f6f;"/></g></g></svg>