<?xml version="1.0" encoding="UTF-8" standalone="no"?><!DOCTYPE svg PUBLIC "-//W3C//DTD SVG 1.1//EN" "http://www.w3.org/Graphics/SVG/1.1/DTD/svg11.dtd"><svg width="100%" height="100%" viewBox="0 0 1920 1080" version="1.1" xmlns="http://www.w3.org/2000/svg" xmlns:xlink="http://www.w3.org/1999/xlink" xml:space="preserve" style="fill-rule:evenodd;clip-rule:evenodd;stroke-linecap:round;stroke-linejoin:round;stroke-miterlimit:1.5;"><rect x="0" y="0" width="1920" height="1080" style="fill:#fff;"/><g id="Server"><path id="Background" d="M1574,235.631c0,-19.158 -15.531,-34.689 -34.689,-34.689c-34.736,0 -87.886,0 -122.622,0c-19.158,0 -34.689,15.531 -34.689,34.689c0,49.137 0,138.485 0,187.622c0,19.158 15.531,34.689 34.689,34.689c34.736,0 87.886,0 122.622,0c19.158,0 34.689,-15.531 34.689,-34.689c0,-49.137 0,-138.485 0,-187.622Z" style="fill:#e8e8e8;"/><g id="Server-thing"><path d="M1556,246.753c0,-7.075 -5.736,-12.811 -12.811,-12.811c-29.325,0 -101.053,0 -130.378,0c-7.075,0 -12.811,5.736 -12.811,12.811c0,1.45 0,2.928 0,4.378c0,7.075 5.736,12.811 12.811,12.811c29.325,0 101.053,0 130.378,0c7.075,0 12.811,-5.736 12.811,-12.811c0,-1.45 0,-2.928 0,-4.378Z" style="fill:#d9d9d9;stroke:#fff;stroke-width:2px;"/><circle cx="1505.5" cy="249.442" r="6.5" style="fill:#73c9ff;"/><circle cx="1527.5" cy="249.442" r="6.5" style="fill:#73c9ff;"/></g><g id="Server-thing1"><path d="M1556,282.753c0,-7.075 -5.736,-12.811 -12.811,-12.811c-29.325,0 -101.053,0 -130.378,0c-7.075,0 -12.811,5.736 -12.811,12.811c0,1.45 0,2.928 0,4.378c0,7.075 5.736,12.811 12.811,12.811c29.325,0 101.053,0 130.378,0c7.075,0 12.811,-5.736 12.811,-12.811c0,-1.45 0,-2.928 0,-4.378Z" style="fill:#d9d9d9;stroke:#fff;stroke-width:2px;"/><circle cx="1505.5" cy="285.442" r="6.5" style="fill:#73c9ff;"/><circle cx="1481.5" cy="285.442" r="6.5" style="fill:#73c9ff;"/><circle cx="1527.5" cy="285.442" r="6.5" style="fill:#73c9ff;"/></g><g id="Server-thing2"><path d="M1556,318.753c0,-7.075 -5.736,-12.811 -12.811,-12.811c-29.325,0 -101.053,0 -130.378,0c-7.075,0 -12.811,5.736 -12.811,12.811c0,1.45 0,2.928 0,4.378c0,7.075 5.736,12.811 12.811,12.811c29.325,0 101.053,0 130.378,0c7.075,0 12.811,-5.736 12.811,-12.811c0,-1.45 0,-2.928 0,-4.378Z" style="fill:#d9d9d9;stroke:#fff;stroke-width:2px;"/><circle cx="1481.5" cy="320.942" r="6.5" style="fill:#73c9ff;"/><circle cx="1505.5" cy="321.942" r="6.5" style="fill:#73c9ff;"/><circle cx="1527.5" cy="321.942" r="6.5" style="fill:#73c9ff;"/></g><g id="Server-thing-green"><path d="M1556,354.753c0,-7.075 -5.736,-12.811 -12.811,-12.811c-29.325,0 -101.053,0 -130.378,0c-7.075,0 -12.811,5.736 -12.811,12.811c0,1.45 0,2.928 0,4.378c0,7.075 5.736,12.811 12.811,12.811c29.325,0 101.053,0 130.378,0c7.075,0 12.811,-5.736 12.811,-12.811c0,-1.45 0,-2.928 0,-4.378Z" style="fill:#d9d9d9;stroke:#fff;stroke-width:2px;"/><circle cx="1481.5" cy="356.942" r="6.5" style="fill:#6affb0;"/><circle cx="1505.5" cy="357.442" r="6.5" style="fill:#73c9ff;"/><circle cx="1527.5" cy="357.442" r="6.5" style="fill:#73c9ff;"/></g><path id="On-off" d="M1478,389.942c8.818,0 15.977,7.169 15.977,16c0,8.831 -7.159,16 -15.977,16c-8.818,0 -15.977,-7.169 -15.977,-16c0,-8.831 7.159,-16 15.977,-16Zm0,4.5c6.334,0 11.477,5.153 11.477,11.5c0,6.347 -5.143,11.5 -11.477,11.5c-6.334,0 -11.477,-5.153 -11.477,-11.5c0,-6.347 5.143,-11.5 11.477,-11.5Z" style="fill:#007fcd;"/></g><g id="long_scissor"><g id="One-Side"><path id="Blade" d="M430.997,513.541c0,0 225.843,-251.264 224.648,-249.971c-1.196,1.292 13.122,11.815 -110.921,159.92c-26.257,31.35 -88.011,105.972 -88.011,105.972l-25.716,-15.921Z" style="fill:#dadada;"/><g id="Handle"><path d="M434.561,569.74c0,0 -90.28,269.132 -236.746,138.524c-146.466,-130.608 172.401,-167.09 185.76,-168.587c13.359,-1.498 50.986,30.063 50.986,30.063Zm-29.402,16.026c0,0 -74.989,199.494 -172.876,107.919c-97.887,-91.575 124.913,-128.025 134.247,-129.529c9.333,-1.504 38.629,21.61 38.629,21.61Z" style="fill:#0094ef;"/><path d="M430.269,581.13c-0.581,1.021 7.237,-17.462 10.235,-32.495c1.376,-6.897 14.397,-17.155 18.071,-21.219c1.933,-2.138 8.442,-6.013 11.965,-15.644c3.009,-8.227 -4.527,-21.237 -13.38,-27.569c-9.056,-6.478 -47.735,51.434 -75.809,56.156c-5.024,0.845 49.517,39.717 48.918,40.771Z" style="fill:#0094ef;"/></g></g><g id="One-Side1"><path id="Blade1" d="M468.631,521.747c0,0 -100.754,-322.471 -100.205,-320.798c0.549,1.672 -16.85,5.28 34.285,191.579c10.824,39.434 35.91,132.989 35.91,132.989l30.01,-3.77Z" style="fill:#cbcbcb;"/><g id="Handle1"><path d="M441.997,571.362c0,0 -29.945,282.287 157.597,224.501c187.542,-57.787 -87.201,-223.69 -98.724,-230.613c-11.523,-6.922 -58.873,6.112 -58.873,6.112Zm20.063,26.81c0,0 -14.86,212.604 112.263,170.086c127.124,-42.517 -60.284,-168.402 -68.144,-173.655c-7.86,-5.253 -44.119,3.569 -44.119,3.569Z" style="fill:#0072b9;"/><path d="M441.158,583.504c0.103,1.171 0.689,-18.89 4.22,-33.806c1.621,-6.844 -5.949,-21.592 -7.598,-26.816c-0.867,-2.748 -5.762,-6.279 -4.956,-16.502c0.688,-8.733 14.461,-26.865 24.179,-21.961c10.531,5.315 22.045,66.398 45.605,82.377c4.217,2.86 -61.556,15.5 -61.45,16.708Z" style="fill:#0072b9;"/></g></g><g id="Hinge"><path id="Bolt" d="M455.058,495.491c7.458,1.626 12.193,9.001 10.567,16.459c-1.626,7.458 -9.001,12.193 -16.459,10.567c-7.458,-1.626 -12.193,-9.001 -10.567,-16.459c1.626,-7.458 9.001,-12.193 16.459,-10.567Z" style="fill:#d8d8d8;"/><g id="Middle-bit"><path d="M440.306,501.476l25.674,5.598" style="fill:#838383;"/><path d="M464.065,515.857l-25.674,-5.598" style="fill:#838383;"/><path d="M442.307,518.397l18.182,-20.846c0,0 0.536,0.425 1.564,1.364c0.006,0.005 -18.182,20.845 -18.182,20.845c0,0 -0.74,-0.533 -1.564,-1.363Z" style="fill:#838383;"/></g></g></g><g id="paper_plane"><g id="Paper-plane"><path d="M1455.63,888.752l344.447,-307.735l-393.502,219.99l49.055,87.745Z" style="fill:#73c9ff;"/><path d="M1406.93,803.673l393.148,-224.431l-494.063,190.518l100.915,33.913Z" style="fill:#007fcd;"/><path d="M1514.71,847.106l285.364,-267.864l-396.361,220.412l110.997,47.452Z" style="fill:#0072b9;"/></g><g id="Impulse"><path d="M1216,869c48.726,-0.497 94.321,-16.503 138,-42" style="fill:#fff;stroke:#808080;stroke-width:1px;"/><path d="M1235,888.752c48.726,-0.496 94.321,-16.503 138,-42" style="fill:#fff;stroke:#808080;stroke-width:1px;"/><path d="M1253,911c48.726,-0.497 94.321,-16.503 138,-42" style="fill:#fff;stroke:#808080;stroke-width:1px;"/></g></g></svg>