<?xml version="1.0" encoding="UTF-8" standalone="no"?><!DOCTYPE svg PUBLIC "-//W3C//DTD SVG 1.1//EN" "http://www.w3.org/Graphics/SVG/1.1/DTD/svg11.dtd"><svg width="100%" height="100%" viewBox="0 0 226 170" version="1.1" xmlns="http://www.w3.org/2000/svg" xmlns:xlink="http://www.w3.org/1999/xlink" xml:space="preserve" style="fill-rule:evenodd;clip-rule:evenodd;stroke-linecap:round;stroke-linejoin:round;stroke-miterlimit:1.5;"><g id="Logo"><g><path d="M53.755,66.45l0,21.033c0,3.322 -0.753,5.813 -2.26,7.474c-1.506,1.661 -3.496,2.492 -5.968,2.492c-2.395,0 -4.336,-0.831 -5.823,-2.492c-1.487,-1.661 -2.231,-4.152 -2.231,-7.474l0,-25.205c0,-3.979 -0.135,-7.069 -0.405,-9.271c-0.271,-2.201 -1.004,-4.007 -2.202,-5.417c-1.197,-1.41 -3.09,-2.115 -5.678,-2.115c-5.176,0 -8.585,1.777 -10.227,5.331c-1.642,3.553 -2.462,8.652 -2.462,15.296l0,21.381c0,3.283 -0.744,5.765 -2.231,7.445c-1.487,1.68 -3.448,2.521 -5.881,2.521c-2.395,0 -4.355,-0.841 -5.881,-2.521c-1.526,-1.68 -2.289,-4.162 -2.289,-7.445l0,-45.253c0,-2.974 0.686,-5.234 2.057,-6.779c1.371,-1.545 3.177,-2.317 5.418,-2.317c2.163,0 3.969,0.724 5.417,2.172c1.449,1.449 2.173,3.448 2.173,5.997l0,1.507c2.742,-3.284 5.678,-5.698 8.807,-7.243c3.129,-1.545 6.605,-2.318 10.429,-2.318c3.979,0 7.398,0.792 10.256,2.376c2.858,1.584 5.215,3.979 7.069,7.185c2.665,-3.245 5.524,-5.649 8.575,-7.214c3.052,-1.564 6.432,-2.347 10.14,-2.347c4.326,0 8.054,0.85 11.183,2.55c3.128,1.7 5.465,4.133 7.011,7.301c1.351,2.858 2.027,7.358 2.027,13.5l0,31.883c0,3.322 -0.753,4.813 -2.259,6.474c-1.507,1.661 -3.496,2.492 -5.968,2.492c-2.395,0 -4.355,-0.841 -5.881,-2.521c-1.526,-1.68 -2.289,-4.162 -2.289,-7.445l0,-26.595c0,-3.4 -0.145,-6.123 -0.434,-8.17c-0.29,-2.047 -1.072,-3.766 -2.347,-5.157c-1.275,-1.391 -3.206,-2.086 -5.794,-2.086c-2.086,0 -4.066,0.618 -5.939,1.854c-1.874,1.236 -3.332,2.897 -4.375,4.983c-1.159,2.666 -1.738,7.378 -1.738,14.138Z" style="fill:#1074b7;fill-rule:nonzero;"/><path d="M121.952,42.115l0,45.715c0,3.168 -0.753,5.563 -2.26,7.185c-1.506,1.622 -3.418,2.434 -5.736,2.434c-2.318,0 -4.201,-0.831 -5.649,-2.492c-1.449,-1.661 -2.173,-4.037 -2.173,-7.127l0,-45.252c0,-3.129 0.724,-5.485 2.173,-7.069c1.448,-1.584 3.331,-2.375 5.649,-2.375c2.318,0 4.23,0.791 5.736,2.375c1.507,1.584 2.26,3.786 2.26,6.606Zm-7.822,-16.34c-2.202,0 -4.085,-0.676 -5.649,-2.028c-1.565,-1.352 -2.347,-3.264 -2.347,-5.736c0,-2.24 0.801,-4.085 2.405,-5.533c1.603,-1.449 3.466,-2.173 5.591,-2.173c2.047,0 3.863,0.656 5.446,1.97c1.584,1.313 2.376,3.225 2.376,5.736c0,2.433 -0.773,4.336 -2.318,5.707c-1.545,1.371 -3.38,2.057 -5.504,2.057Z" style="fill:#1997eb;fill-rule:nonzero;"/><path d="M152.661,41.883l0,1.912c2.781,-3.67 5.823,-6.364 9.126,-8.083c3.302,-1.719 7.097,-2.578 11.385,-2.578c4.172,0 7.899,0.907 11.183,2.723c3.283,1.815 5.736,4.384 7.358,7.706c1.043,1.931 1.719,4.017 2.028,6.258c0.309,2.24 0.464,5.099 0.464,8.575l0,29.434c0,3.168 -0.724,5.563 -2.173,7.185c-1.448,1.622 -3.332,2.434 -5.649,2.434c-2.357,0 -4.269,-0.831 -5.736,-2.492c-1.468,-1.661 -2.202,-4.037 -2.202,-7.127l0,-26.363c0,-5.215 -0.724,-9.203 -2.173,-11.965c-1.449,-2.762 -4.336,-4.143 -8.662,-4.143c-2.82,0 -5.389,0.84 -7.706,2.521c-2.318,1.68 -4.018,3.988 -5.099,6.924c-0.773,2.356 -1.159,6.76 -1.159,13.21l0,19.816c0,3.206 -0.744,5.611 -2.231,7.214c-1.487,1.603 -3.409,2.405 -5.765,2.405c-2.279,0 -4.152,-0.831 -5.62,-2.492c-1.468,-1.661 -2.202,-4.037 -2.202,-7.127l0,-45.715c0,-3.013 0.657,-5.263 1.97,-6.751c1.313,-1.487 3.109,-2.23 5.388,-2.23c1.391,0 2.646,0.328 3.767,0.985c1.12,0.656 2.018,1.641 2.694,2.955c0.676,1.313 1.014,2.916 1.014,4.809Z" style="fill:#1997eb;fill-rule:nonzero;"/><path d="M225.783,42.115l0,45.715c0,3.168 -0.753,5.563 -2.26,7.185c-1.506,1.622 -3.418,2.434 -5.736,2.434c-2.318,0 -4.201,-0.831 -5.649,-2.492c-1.449,-1.661 -2.173,-4.037 -2.173,-7.127l0,-45.252c0,-3.129 0.724,-5.485 2.173,-7.069c1.448,-1.584 3.331,-2.375 5.649,-2.375c2.318,0 4.23,0.791 5.736,2.375c1.507,1.584 2.26,3.786 2.26,6.606Zm-7.822,-16.34c-2.202,0 -4.085,-0.676 -5.649,-2.028c-1.565,-1.352 -2.347,-3.264 -2.347,-5.736c0,-2.24 0.801,-4.085 2.404,-5.533c1.604,-1.449 3.467,-2.173 5.592,-2.173c2.047,0 3.863,0.656 5.446,1.97c1.584,1.313 2.376,3.225 2.376,5.736c0,2.433 -0.773,4.336 -2.318,5.707c-1.545,1.371 -3.38,2.057 -5.504,2.057Z" style="fill:#1997eb;fill-rule:nonzero;"/><path d="M22.988,169.215c-2.395,0 -4.461,-0.772 -6.2,-2.317c-1.738,-1.545 -2.607,-3.708 -2.607,-6.49c0,-2.356 0.83,-4.384 2.491,-6.084c1.661,-1.699 3.709,-2.549 6.142,-2.549c2.434,0 4.51,0.84 6.229,2.521c1.719,1.68 2.578,3.717 2.578,6.112c0,2.743 -0.859,4.896 -2.578,6.461c-1.719,1.564 -3.737,2.346 -6.055,2.346Z" style="fill:#f2ad29;fill-rule:nonzero;"/><path d="M102.252,138.217l0,21.032c0,3.322 -0.753,5.814 -2.26,7.475c-1.506,1.661 -3.496,2.491 -5.968,2.491c-2.395,0 -4.336,-0.83 -5.823,-2.491c-1.487,-1.661 -2.231,-4.153 -2.231,-7.475l0,-25.204c0,-3.979 -0.135,-7.069 -0.405,-9.271c-0.271,-2.201 -1.005,-4.007 -2.202,-5.417c-1.197,-1.41 -3.09,-2.115 -5.678,-2.115c-5.176,0 -8.585,1.777 -10.227,5.331c-1.642,3.553 -2.462,8.652 -2.462,15.296l0,21.38c0,3.284 -0.744,5.766 -2.231,7.446c-1.487,1.68 -3.448,2.52 -5.881,2.52c-2.395,0 -4.355,-0.84 -5.881,-2.52c-1.526,-1.68 -2.289,-4.162 -2.289,-7.446l0,-45.252c0,-2.974 0.686,-5.234 2.057,-6.779c1.371,-1.545 3.177,-2.318 5.417,-2.318c2.164,0 3.969,0.725 5.418,2.173c1.449,1.449 2.173,3.448 2.173,5.997l0,1.507c2.742,-3.284 5.678,-5.698 8.807,-7.243c3.129,-1.545 6.605,-2.318 10.429,-2.318c3.979,0 7.398,0.792 10.256,2.376c2.858,1.584 5.215,3.979 7.069,7.185c2.665,-3.245 5.524,-5.65 8.575,-7.214c3.052,-1.564 6.432,-2.347 10.14,-2.347c4.326,0 8.054,0.85 11.183,2.55c3.128,1.699 5.465,4.133 7.01,7.3c1.352,2.859 2.028,7.359 2.028,13.501l0,30.882c0,3.322 -0.753,5.814 -2.259,7.475c-1.507,1.661 -3.496,2.491 -5.968,2.491c-2.395,0 -4.356,-0.84 -5.881,-2.52c-1.526,-1.68 -2.289,-4.162 -2.289,-7.446l0,-26.595c0,-3.399 -0.145,-6.122 -0.435,-8.169c-0.289,-2.048 -1.071,-3.767 -2.346,-5.157c-1.275,-1.391 -3.206,-2.086 -5.794,-2.086c-2.086,0 -4.066,0.618 -5.939,1.854c-1.874,1.236 -3.332,2.897 -4.375,4.983c-1.159,2.665 -1.738,7.378 -1.738,14.138Z" style="fill:#f2ad29;fill-rule:nonzero;"/><path d="M198.782,140.94l-30.94,0c0.038,3.592 0.762,6.76 2.172,9.502c1.41,2.743 3.284,4.81 5.621,6.2c2.337,1.391 4.915,2.086 7.735,2.086c1.893,0 3.621,-0.222 5.186,-0.666c1.564,-0.445 3.08,-1.14 4.548,-2.086c1.468,-0.947 2.82,-1.961 4.056,-3.042c1.236,-1.082 2.839,-2.55 4.809,-4.404c0.811,-0.695 1.97,-1.043 3.476,-1.043c1.623,0 2.936,0.445 3.94,1.333c1.005,0.888 1.507,2.144 1.507,3.766c0,1.429 -0.56,3.1 -1.68,5.012c-1.121,1.912 -2.811,3.747 -5.07,5.505c-2.26,1.757 -5.099,3.215 -8.518,4.374c-3.418,1.159 -7.348,1.738 -11.791,1.738c-10.159,0 -18.058,-2.897 -23.698,-8.691c-5.639,-5.794 -8.459,-13.655 -8.459,-23.582c0,-4.674 0.695,-9.01 2.086,-13.008c1.39,-3.998 3.418,-7.426 6.084,-10.284c2.665,-2.859 5.948,-5.051 9.85,-6.577c3.901,-1.526 8.227,-2.288 12.979,-2.288c6.18,0 11.482,1.303 15.904,3.911c4.423,2.607 7.736,5.977 9.937,10.11c2.202,4.134 3.303,8.344 3.303,12.632c0,3.978 -1.139,6.557 -3.419,7.735c-2.279,1.178 -5.485,1.767 -9.618,1.767Zm-30.94,-8.981l28.68,0c-0.386,-5.408 -1.844,-9.454 -4.374,-12.139c-2.53,-2.684 -5.862,-4.027 -9.995,-4.027c-3.94,0 -7.175,1.362 -9.705,4.085c-2.53,2.724 -4.066,6.75 -4.606,12.081Z" style="fill:#f8d085;fill-rule:nonzero;"/></g><path d="M126,10.305c0,0 36.218,-17.775 81,0" style="fill:none;stroke:#1074b7;stroke-width:4.5px;"/></g></svg>