<?xml version="1.0" encoding="UTF-8" standalone="no"?><!DOCTYPE svg PUBLIC "-//W3C//DTD SVG 1.1//EN" "http://www.w3.org/Graphics/SVG/1.1/DTD/svg11.dtd"><svg width="100%" height="100%" viewBox="0 0 307 191" version="1.1" xmlns="http://www.w3.org/2000/svg" xmlns:xlink="http://www.w3.org/1999/xlink" xml:space="preserve" style="fill-rule:evenodd;clip-rule:evenodd;stroke-linejoin:round;stroke-miterlimit:1.41421;"><g id="Own-your-link"><g id="Social-media-post"><path d="M306.193,15.017c0,-3.733 -1.483,-7.313 -4.123,-9.953c-2.639,-2.639 -6.219,-4.122 -9.952,-4.122c-26.652,0 -84.198,0 -110.85,0c-3.733,0 -7.313,1.483 -9.953,4.122c-2.639,2.64 -4.122,6.22 -4.122,9.953c0,7.683 0,17.167 0,24.85c0,3.733 1.483,7.313 4.122,9.953c2.64,2.639 6.22,4.122 9.953,4.122c26.652,0 84.198,0 110.85,0c3.733,0 7.313,-1.483 9.952,-4.122c2.64,-2.64 4.123,-6.22 4.123,-9.953c0,-7.683 0,-17.167 0,-24.85Z" style="fill:#f2f2f2;"/><text x="204.671px" y="38.592px" style="font-family:'Roboto-Regular', 'Roboto';font-size:7.681px;fill:#0072b9;">mini.me.herokuapp/24r5g6</text><g id="Person"><ellipse cx="186.193" cy="20.192" rx="7" ry="7.25" style="fill:#7d7d7d;"/><clipPath id="_clip1"><rect x="176.193" y="22.942" width="20" height="12.5"/></clipPath><g clip-path="url(#_clip1)"><ellipse cx="186.193" cy="36.192" rx="10" ry="13.25" style="fill:#7d7d7d;"/></g></g><g id="Tweet"><rect x="205.193" y="12.942" width="90" height="4" style="fill:#c7c7c7;"/><rect x="205.193" y="21.567" width="73" height="4" style="fill:#c7c7c7;"/></g></g><g id="Profile"><path d="M306.193,78.017c0,-3.733 -1.483,-7.313 -4.123,-9.953c-2.639,-2.639 -6.219,-4.122 -9.952,-4.122c-26.652,0 -84.198,0 -110.85,0c-3.733,0 -7.313,1.483 -9.953,4.122c-2.639,2.64 -4.122,6.22 -4.122,9.953c0,24.433 0,74.417 0,98.85c0,3.733 1.483,7.313 4.122,9.953c2.64,2.639 6.22,4.122 9.953,4.122c26.652,0 84.198,0 110.85,0c3.733,0 7.313,-1.483 9.952,-4.122c2.64,-2.64 4.123,-6.22 4.123,-9.953c0,-24.433 0,-74.417 0,-98.85Z" style="fill:#f2f2f2;"/><text x="179.671px" y="141.592px" style="font-family:'Roboto-Regular', 'Roboto';font-size:7.681px;fill:#0072b9;">mini.me.herokuapp/24r5g6</text><g id="Person1"><ellipse cx="189.193" cy="94.192" rx="7" ry="7.25" style="fill:#7d7d7d;"/><clipPath id="_clip2"><rect x="179.193" y="96.942" width="20" height="12.5"/></clipPath><g clip-path="url(#_clip2)"><ellipse cx="189.193" cy="110.192" rx="10" ry="13.25" style="fill:#7d7d7d;"/></g></g><g id="Social-buttons"><path d="M211.267,159.641c0,-4.103 -3.331,-7.434 -7.434,-7.434l-16.207,0c-4.102,0 -7.433,3.331 -7.433,7.434l0,14.867c0,4.103 3.331,7.434 7.433,7.434l16.207,0c4.103,0 7.434,-3.331 7.434,-7.434l0,-14.867Z" style="fill:#2b79aa;"/><path d="M250.378,159.641c0,-4.103 -3.331,-7.434 -7.434,-7.434l-16.207,0c-4.102,0 -7.433,3.331 -7.433,7.434l0,14.867c0,4.103 3.331,7.434 7.433,7.434l16.207,0c4.103,0 7.434,-3.331 7.434,-7.434l0,-14.867Z" style="fill:#8a9f35;"/><path d="M290.998,159.641c0,-4.103 -3.331,-7.434 -7.433,-7.434l-16.207,0c-4.103,0 -7.434,3.331 -7.434,7.434l0,14.867c0,4.103 3.331,7.434 7.434,7.434l16.207,0c4.102,0 7.433,-3.331 7.433,-7.434l0,-14.867Z" style="fill:#ba4a68;"/></g><g id="Tweet1"><rect x="179.193" y="117.13" width="90" height="4" style="fill:#c7c7c7;"/><rect x="179.193" y="125.755" width="73" height="4" style="fill:#c7c7c7;"/></g><g id="Profile-info"><text x="216.193px" y="100.271px" style="font-family:'Roboto-Regular', 'Roboto';font-size:10.292px;fill:#555;">3<tspan x="222.257px 228.321px " y="100.271px 100.271px ">43</tspan></text><text x="242.969px" y="100.271px" style="font-family:'Roboto-Regular', 'Roboto';font-size:10.292px;fill:#555;">4<tspan x="249.033px " y="100.271px ">2</tspan></text><text x="264.064px" y="100.271px" style="font-family:'Roboto-Regular', 'Roboto';font-size:10.292px;fill:#555;">5<tspan x="270.128px " y="100.271px ">6</tspan></text></g><text x="207.607px" y="80.942px" style="font-family:'Roboto-Regular', 'Roboto';font-size:8px;fill:#aaa;">@john_doe_42</text></g><g id="Document"><rect x="0.193" y="0.942" width="143" height="190" style="fill:#f2f2f2;"/><text x="11.193px" y="164.128px" style="font-family:'Roboto-Regular', 'Roboto';font-size:9.581px;fill:#0072b9;">mini.me.herokuapp/24r5g6</text><g id="Header"><rect x="11.193" y="24.884" width="103" height="11.058" style="fill:#808080;"/><rect x="11.193" y="42.884" width="66" height="11.058" style="fill:#808080;"/></g><g id="Text-lines"><rect x="11.193" y="82.884" width="99" height="3.058" style="fill:#bfbfbf;"/><rect x="11.193" y="93.884" width="99" height="3.058" style="fill:#bfbfbf;"/><rect x="11.193" y="104.884" width="99" height="3.058" style="fill:#bfbfbf;"/><rect x="11.193" y="115.884" width="99" height="3.058" style="fill:#bfbfbf;"/><rect x="11.193" y="126.884" width="99" height="3.058" style="fill:#bfbfbf;"/><rect x="11.193" y="137.884" width="99" height="3.058" style="fill:#bfbfbf;"/></g><g id="Social-buttons1"><path d="M23.193,65.692c0,-1.518 -1.233,-2.75 -2.75,-2.75l-6.5,0c-1.518,0 -2.75,1.232 -2.75,2.75l0,5.5c0,1.518 1.232,2.75 2.75,2.75l6.5,0c1.517,0 2.75,-1.232 2.75,-2.75l0,-5.5Z" style="fill:#0081d5;"/><path d="M41.193,65.692c0,-1.518 -1.233,-2.75 -2.75,-2.75l-6.5,0c-1.518,0 -2.75,1.232 -2.75,2.75l0,5.5c0,1.518 1.232,2.75 2.75,2.75l6.5,0c1.517,0 2.75,-1.232 2.75,-2.75l0,-5.5Z" style="fill:#9dbf15;"/><path d="M60.693,65.692c0,-1.518 -1.233,-2.75 -2.75,-2.75l-6.5,0c-1.518,0 -2.75,1.232 -2.75,2.75l0,5.5c0,1.518 1.232,2.75 2.75,2.75l6.5,0c1.517,0 2.75,-1.232 2.75,-2.75l0,-5.5Z" style="fill:#d1335b;"/></g></g></g></svg>