<?xml version="1.0" encoding="UTF-8" standalone="no"?><!DOCTYPE svg PUBLIC "-//W3C//DTD SVG 1.1//EN" "http://www.w3.org/Graphics/SVG/1.1/DTD/svg11.dtd"><svg width="100%" height="100%" viewBox="0 0 46 50" version="1.1" xmlns="http://www.w3.org/2000/svg" xmlns:xlink="http://www.w3.org/1999/xlink" xml:space="preserve" style="fill-rule:evenodd;clip-rule:evenodd;stroke-linejoin:round;stroke-miterlimit:1.41421;"><g id="Scissor"><g id="Blades"><g id="One-side-of-scissor"><path id="Blades1" d="M20.668,20.993l25.27,14.567c0,0 -3.004,6.594 -9.239,2.912c-6.236,-3.682 -19.883,-11.462 -19.883,-11.462l3.852,-6.017Z" style="fill:#b3b3b3;"/><g id="Scissor-knob"><path d="M21.415,17.138c2.993,-5.182 1.154,-11.855 -4.104,-14.892c-5.258,-3.037 -11.957,-1.296 -14.95,3.887c-2.993,5.182 -1.155,11.855 4.103,14.892c5.259,3.037 11.958,1.296 14.951,-3.887Zm-3.51,-2.027c1.912,-3.311 0.769,-7.556 -2.552,-9.474c-3.321,-1.918 -7.57,-0.788 -9.482,2.523c-1.913,3.311 -0.769,7.556 2.552,9.474c3.321,1.919 7.569,0.788 9.482,-2.523Z" style="fill:#737373;"/><path d="M6.464,21.025c0,0 8.413,4.859 12.86,7.428c0.712,0.411 1.558,0.523 2.352,0.31c0.795,-0.213 1.472,-0.732 1.883,-1.444c0.209,-0.362 0.423,-0.733 0.63,-1.091c0.761,-1.318 0.453,-2.993 -0.727,-3.954c-1.523,-1.234 -3.102,-3.133 -2.047,-5.136" style="fill:#737373;"/></g></g><g id="One-side-of-scissor1"><path id="Blades2" d="M20.668,29.007l25.27,-14.567c0,0 -3.004,-6.594 -9.239,-2.912c-6.236,3.682 -19.883,11.462 -19.883,11.462l3.852,6.017Z" style="fill:#8c8c8c;"/><g id="Scissor-knob1"><path d="M21.415,32.862c2.993,5.182 1.154,11.855 -4.104,14.892c-5.258,3.037 -11.957,1.296 -14.95,-3.887c-2.993,-5.182 -1.155,-11.855 4.103,-14.892c5.259,-3.037 11.958,-1.296 14.951,3.887Zm-3.51,2.027c1.912,3.311 0.769,7.556 -2.552,9.474c-3.321,1.918 -7.57,0.788 -9.482,-2.523c-1.913,-3.311 -0.769,-7.556 2.552,-9.474c3.321,-1.919 7.569,-0.788 9.482,2.523Z" style="fill:#4d4d4d;"/><path d="M6.464,28.975c0,0 8.413,-4.859 12.86,-7.428c0.712,-0.411 1.558,-0.523 2.352,-0.31c0.795,0.213 1.472,0.732 1.883,1.444c0.209,0.362 0.423,0.733 0.63,1.091c0.761,1.318 0.453,2.993 -0.727,3.954c-1.523,1.234 -3.102,3.133 -2.047,5.136" style="fill:#4d4d4d;"/></g></g></g><path id="Center" d="M23.431,25c0,0.959 -0.778,1.737 -1.737,1.737c-0.959,0 -1.737,-0.778 -1.737,-1.737c0,-0.959 0.778,-1.737 1.737,-1.737c0.959,0 1.737,0.778 1.737,1.737Z"/></g></svg>