<?xml version="1.0" encoding="UTF-8" standalone="no"?><!DOCTYPE svg PUBLIC "-//W3C//DTD SVG 1.1//EN" "http://www.w3.org/Graphics/SVG/1.1/DTD/svg11.dtd"><svg width="100%" height="100%" viewBox="0 0 460 461" version="1.1" xmlns="http://www.w3.org/2000/svg" xmlns:xlink="http://www.w3.org/1999/xlink" xml:space="preserve" style="fill-rule:evenodd;clip-rule:evenodd;stroke-linejoin:round;stroke-miterlimit:1.41421;"><g id="Spiderweb"><g id="Tangled-link"><g id="Body" transform="matrix(0.84537,-0.534181,0.534181,0.84537,-614.025,-650.043)"><text x="164.107px" y="1230.5px" style="font-family:'Roboto-Italic', 'Roboto';font-style:italic;font-size:18px;fill:#0072b9;">q=a+pr<tspan x="219.065px " y="1230.5px ">o</tspan>duct+sear<tspan x="307.597px " y="1230.5px ">c</tspan>h+that+i</text><text x="225.253px" y="1248.5px" style="font-family:'Roboto-Italic', 'Roboto';font-style:italic;font-size:18px;fill:#0072b9;">s+v<tspan x="252.754px 262.088px 268.24px " y="1248.5px 1248.5px 1248.5px ">ery</tspan>+long</text></g><g id="Body1" transform="matrix(0.982536,0.186073,-0.186073,0.982536,-173.483,-41.6007)"><text x="316.627px" y="285.503px" style="font-family:'Roboto-Italic', 'Roboto';font-style:italic;font-size:18px;fill:#0072b9;">sear<tspan x="350.465px " y="285.503px ">c</tspan>h?r<tspan x="383.556px 392.89px 398.831px " y="285.503px 285.503px 285.503px ">efe</tspan>rr<tspan x="419.802px " y="285.503px ">a</tspan>ll=233949</text></g><g id="Body2" transform="matrix(0.99628,-0.0861755,0.0861755,0.99628,87.8317,-24.1034)"><text x="-39.057px" y="201.126px" style="font-family:'Roboto-Italic', 'Roboto';font-style:italic;font-size:18px;fill:#0072b9;">http:/<tspan x="1.75px " y="201.126px ">/</tspan>a-long-website-name.com/</text></g><g id="Body3" transform="matrix(0.740603,0.671943,-0.671943,0.740603,-365.355,-725.155)"><text x="937.649px" y="394.714px" style="font-family:'Roboto-Italic', 'Roboto';font-style:italic;font-size:18px;fill:#0072b9;">r<tspan x="943.476px 952.81px 958.751px " y="394.714px 394.714px 394.714px ">efe</tspan>rr<tspan x="979.722px " y="394.714px ">a</tspan>ll=233949&amp;</text></g><g id="Body4" transform="matrix(0.95299,-0.303001,0.303001,0.95299,247.315,-163.719)"><text x="-212.164px" y="351.607px" style="font-family:'Roboto-Italic', 'Roboto';font-style:italic;font-size:18px;fill:#0072b9;">&amp;utm=32&amp;r<tspan x="-123.799px " y="351.607px ">f</tspan>=666&amp;type=a54f<tspan x="11.008px " y="351.607px ">g</tspan>6840</text></g></g><g id="Prohibite"><path d="M388.609,357.204l-300.139,-289.495l-22.077,22.889l300.138,289.495l22.078,-22.889Z" style="fill:#f76161;"/><path d="M230,0.616c126.94,0 230,103.059 230,230c0,126.94 -103.06,230 -230,230c-126.94,0 -230,-103.06 -230,-230c0,-126.941 103.06,-230 230,-230Zm0,30c110.383,0 200,89.617 200,200c0,110.383 -89.617,200 -200,200c-110.383,0 -200,-89.617 -200,-200c0,-110.383 89.617,-200 200,-200Z" style="fill:#f76161;"/></g></g></svg>